<mxfile host="app.diagrams.net" modified="2024-02-22T05:27:53.164Z" agent="Mozilla/5.0 (Windows NT 10.0; Win64; x64; rv:123.0) Gecko/20100101 Firefox/123.0" etag="eEDH-pPstGcJEawhnhzh" version="23.1.5" type="device">
  <diagram name="Seite-1" id="_ZRA7i675OcttO1Q-gn7">
    <mxGraphModel dx="871" dy="1128" grid="1" gridSize="10" guides="1" tooltips="1" connect="1" arrows="1" fold="1" page="1" pageScale="1" pageWidth="827" pageHeight="1169" math="0" shadow="0">
      <root>
        <mxCell id="0" />
        <mxCell id="1" parent="0" />
        <mxCell id="JJrT6lWCFQL90WoTH-im-6" style="edgeStyle=orthogonalEdgeStyle;rounded=0;orthogonalLoop=1;jettySize=auto;html=1;entryX=0;entryY=0.5;entryDx=0;entryDy=0;endArrow=none;endFill=0;opacity=30;" edge="1" parent="1" source="JJrT6lWCFQL90WoTH-im-1" target="JJrT6lWCFQL90WoTH-im-2">
          <mxGeometry relative="1" as="geometry" />
        </mxCell>
        <mxCell id="JJrT6lWCFQL90WoTH-im-1" value="" style="ellipse;whiteSpace=wrap;html=1;aspect=fixed;opacity=50;" vertex="1" parent="1">
          <mxGeometry x="40" y="240" width="60" height="60" as="geometry" />
        </mxCell>
        <mxCell id="JJrT6lWCFQL90WoTH-im-7" style="edgeStyle=orthogonalEdgeStyle;rounded=0;orthogonalLoop=1;jettySize=auto;html=1;entryX=0;entryY=0.5;entryDx=0;entryDy=0;endArrow=none;endFill=0;opacity=50;" edge="1" parent="1" source="JJrT6lWCFQL90WoTH-im-2" target="JJrT6lWCFQL90WoTH-im-3">
          <mxGeometry relative="1" as="geometry" />
        </mxCell>
        <mxCell id="JJrT6lWCFQL90WoTH-im-2" value="" style="ellipse;whiteSpace=wrap;html=1;aspect=fixed;" vertex="1" parent="1">
          <mxGeometry x="160" y="240" width="60" height="60" as="geometry" />
        </mxCell>
        <mxCell id="JJrT6lWCFQL90WoTH-im-8" style="edgeStyle=orthogonalEdgeStyle;rounded=0;orthogonalLoop=1;jettySize=auto;html=1;entryX=0;entryY=0.5;entryDx=0;entryDy=0;endArrow=none;endFill=0;" edge="1" parent="1" source="JJrT6lWCFQL90WoTH-im-3" target="JJrT6lWCFQL90WoTH-im-4">
          <mxGeometry relative="1" as="geometry" />
        </mxCell>
        <mxCell id="JJrT6lWCFQL90WoTH-im-3" value="" style="ellipse;whiteSpace=wrap;html=1;aspect=fixed;fillColor=#CCCCCC;" vertex="1" parent="1">
          <mxGeometry x="280" y="240" width="60" height="60" as="geometry" />
        </mxCell>
        <mxCell id="JJrT6lWCFQL90WoTH-im-4" value="" style="ellipse;whiteSpace=wrap;html=1;aspect=fixed;fillColor=#808080;" vertex="1" parent="1">
          <mxGeometry x="400" y="240" width="60" height="60" as="geometry" />
        </mxCell>
        <mxCell id="JJrT6lWCFQL90WoTH-im-5" value="" style="ellipse;whiteSpace=wrap;html=1;aspect=fixed;fillColor=#000000;" vertex="1" parent="1">
          <mxGeometry x="560" y="240" width="60" height="60" as="geometry" />
        </mxCell>
        <mxCell id="JJrT6lWCFQL90WoTH-im-9" value="ErwÃ¼nschte&lt;br&gt;Output" style="text;html=1;align=center;verticalAlign=middle;whiteSpace=wrap;rounded=0;" vertex="1" parent="1">
          <mxGeometry x="560" y="204" width="60" height="30" as="geometry" />
        </mxCell>
        <mxCell id="JJrT6lWCFQL90WoTH-im-11" style="rounded=0;orthogonalLoop=1;jettySize=auto;html=1;entryX=0.5;entryY=1;entryDx=0;entryDy=0;" edge="1" parent="1" source="JJrT6lWCFQL90WoTH-im-10" target="JJrT6lWCFQL90WoTH-im-5">
          <mxGeometry relative="1" as="geometry" />
        </mxCell>
        <mxCell id="JJrT6lWCFQL90WoTH-im-10" value="&lt;font style=&quot;font-size: 16px;&quot;&gt;y&lt;/font&gt;" style="text;html=1;align=center;verticalAlign=middle;whiteSpace=wrap;rounded=0;" vertex="1" parent="1">
          <mxGeometry x="590" y="360" width="60" height="30" as="geometry" />
        </mxCell>
        <mxCell id="JJrT6lWCFQL90WoTH-im-13" style="rounded=0;orthogonalLoop=1;jettySize=auto;html=1;entryX=0.5;entryY=1;entryDx=0;entryDy=0;" edge="1" parent="1" source="JJrT6lWCFQL90WoTH-im-12" target="JJrT6lWCFQL90WoTH-im-4">
          <mxGeometry relative="1" as="geometry" />
        </mxCell>
        <mxCell id="JJrT6lWCFQL90WoTH-im-12" value="&lt;font style=&quot;font-size: 16px;&quot;&gt;a&lt;sup&gt;(L)&lt;/sup&gt;&lt;/font&gt;" style="text;html=1;align=center;verticalAlign=middle;whiteSpace=wrap;rounded=0;" vertex="1" parent="1">
          <mxGeometry x="440" y="360" width="60" height="30" as="geometry" />
        </mxCell>
        <mxCell id="JJrT6lWCFQL90WoTH-im-15" style="rounded=0;orthogonalLoop=1;jettySize=auto;html=1;entryX=0.5;entryY=1;entryDx=0;entryDy=0;" edge="1" parent="1" source="JJrT6lWCFQL90WoTH-im-14" target="JJrT6lWCFQL90WoTH-im-3">
          <mxGeometry relative="1" as="geometry" />
        </mxCell>
        <mxCell id="JJrT6lWCFQL90WoTH-im-14" value="&lt;font style=&quot;font-size: 16px;&quot;&gt;a&lt;sup&gt;(L-1)&lt;/sup&gt;&lt;/font&gt;" style="text;html=1;align=center;verticalAlign=middle;whiteSpace=wrap;rounded=0;" vertex="1" parent="1">
          <mxGeometry x="320" y="360" width="60" height="30" as="geometry" />
        </mxCell>
      </root>
    </mxGraphModel>
  </diagram>
</mxfile>
